<?xml version="1.0" encoding="UTF-8"?>
<!DOCTYPE svg PUBLIC "-//W3C//DTD SVG 1.1//EN" "http://www.w3.org/Graphics/SVG/1.1/DTD/svg11.dtd">
<!-- Creator: CorelDRAW X7 -->
<svg xmlns="http://www.w3.org/2000/svg" xml:space="preserve" width="115mm" height="18mm" version="1.1" style="shape-rendering:geometricPrecision; text-rendering:geometricPrecision; image-rendering:optimizeQuality; fill-rule:evenodd; clip-rule:evenodd"
viewBox="0 0 11500 1800"
 xmlns:xlink="http://www.w3.org/1999/xlink">
 <defs>
  <style type="text/css">
   <![CDATA[
    .fil0 {fill:#FEFEFE;fill-rule:nonzero}
   ]]>
  </style>
 </defs>
 <g id="Layer_x0020_1">
  <metadata id="CorelCorpID_0Corel-Layer"/>
  <path class="fil0" d="M866 1605c0,24 -12,35 -36,35 -18,0 -33,-15 -33,-35l1 -378c1,-184 -100,-286 -277,-286l-199 0 -2 664c0,24 -12,35 -36,35 -18,0 -33,-15 -33,-35l5 -1422c0,-17 16,-33 33,-33l235 0c236,0 344,122 343,394 0,134 -27,234 -83,298 -24,29 -53,51 -91,66 29,16 53,31 78,56 64,61 96,150 96,263l-1 378 0 0zm-542 -1386l-2 654 199 0c192,0 275,-91 275,-329 1,-230 -78,-325 -273,-325l-199 0 0 0z"/>
  <path id="_1" class="fil0" d="M6776 1605c0,24 -11,35 -35,35 -18,0 -33,-15 -33,-35l1 -378c1,-184 -101,-286 -278,-286l-199 0 -2 664c0,24 -11,35 -35,35 -18,0 -33,-15 -33,-35l5 -1422c0,-17 15,-33 33,-33l234 0c237,0 345,122 344,394 -1,134 -28,234 -83,298 -25,29 -53,51 -91,66 29,16 53,31 77,56 64,61 97,150 97,263l-2 378 0 0zm-541 -1386l-2 654 199 0c192,0 274,-91 275,-329 1,-230 -78,-325 -273,-325l-199 0 0 0z"/>
  <path id="_2" class="fil0" d="M1337 530c0,-13 12,-25 27,-25 14,0 26,12 25,25l-2 833c-1,101 24,156 58,188 33,32 76,37 114,37 36,0 80,-5 113,-37 34,-32 60,-87 60,-188l3 -833c0,-13 12,-25 25,-25 15,0 27,12 27,25l-3 833c0,114 -29,183 -73,224 -44,42 -100,54 -152,54 -52,0 -106,-12 -150,-54 -43,-41 -75,-110 -75,-224l3 -833 0 0z"/>
  <path id="_3" class="fil0" d="M2201 1642c-19,0 -27,-8 -27,-27l4 -1083c0,-13 11,-25 27,-25l166 0c181,0 263,104 262,306l-2 523c0,202 -83,306 -264,306l-166 0zm29 -1083l-4 1031 142 0c146,0 209,-79 209,-254l2 -523c1,-175 -61,-254 -208,-254l-141 0 0 0z"/>
  <path id="_4" class="fil0" d="M3479 1614c0,18 -9,27 -27,27 -14,0 -25,-12 -25,-27l1 -288c0,-140 -77,-218 -212,-218l-151 0 -2 506c0,18 -9,27 -27,27 -14,0 -25,-12 -25,-27l3 -1084c0,-13 12,-25 26,-25l178 0c181,0 263,93 262,300 0,103 -21,179 -63,227 -19,22 -41,39 -69,51 22,12 40,24 59,42 48,47 73,115 73,201l-1 288 0 0zm-412 -1057l-2 499 151 0c147,0 210,-69 210,-251 1,-175 -60,-248 -208,-248l-151 0z"/>
  <path id="_5" class="fil0" d="M4399 1611c5,13 -7,27 -20,32l-7 0c-13,0 -22,-7 -25,-20l-75 -327 -298 0 -77 327c-5,13 -18,25 -32,20 -15,-5 -25,-19 -20,-32l255 -1084c4,-13 12,-20 25,-20 15,0 24,7 27,20l247 1084 0 0zm-274 -961l-139 594 275 0 -136 -594z"/>
  <path id="_6" class="fil0" d="M5370 722l-261 901c-5,12 -14,20 -27,20 -12,0 -20,-8 -25,-20l-255 -901 -3 893c0,19 -9,28 -27,28 -19,0 -27,-9 -27,-28l4 -1083c0,-29 44,-36 52,-7l281 994 290 -994c9,-29 53,-22 52,7l-3 1083c0,15 -14,28 -27,28 -19,0 -27,-9 -27,-28l3 -893 0 0z"/>
  <path id="_7" class="fil0" d="M7301 1100l-1 490 328 0c15,0 27,12 27,25 0,19 -8,27 -27,27l-354 0c-18,0 -27,-8 -27,-27l4 -1083c0,-13 12,-25 27,-25l354 0c15,0 27,12 27,25 0,19 -9,27 -27,27l-329 0 -1 489 328 0c19,0 27,8 27,27 0,13 -12,25 -27,25l-329 0 0 0z"/>
  <path id="_8" class="fil0" d="M8579 1611c5,13 -7,27 -21,32l-6 0c-14,0 -22,-7 -25,-20l-75 -327 -298 0 -77 327c-5,13 -19,25 -32,20 -15,-5 -25,-19 -20,-32l255 -1084c3,-13 11,-20 25,-20 15,0 23,7 27,20l247 1084 0 0zm-275 -961l-138 594 274 0 -136 -594z"/>
  <path id="_9" class="fil0" d="M8948 1642c-18,0 -27,-8 -27,-27l4 -1083c0,-13 12,-25 27,-25 14,0 25,12 25,25l-3 1058 355 0c15,0 27,12 27,25 0,19 -9,27 -27,27l-381 0 0 0z"/>
  <path id="_10" class="fil0" d="M10208 505c16,0 27,12 27,25 0,19 -8,27 -27,27l-244 0 -4 1057c0,15 -13,27 -27,27 -18,0 -27,-9 -27,-27l4 -1057 -246 0c-13,0 -25,-11 -25,-27 0,-13 12,-25 25,-25l544 0 0 0z"/>
  <path id="_11" class="fil0" d="M10905 1079l-2 536c0,14 -12,26 -27,26 -15,0 -27,-12 -27,-26l2 -536 -291 -535c-7,-12 -3,-29 10,-36 14,-7 29,-1 37,10l271 499 276 -499c7,-11 24,-17 36,-10 13,7 18,24 10,36l-295 535z"/>
  <path class="fil0" d="M866 1605c0,24 -12,35 -36,35 -18,0 -33,-15 -33,-35l1 -378c1,-184 -100,-286 -277,-286l-199 0 -2 664c0,24 -12,35 -36,35 -18,0 -33,-15 -33,-35l5 -1422c0,-17 16,-33 33,-33l235 0c236,0 344,122 343,394 0,134 -27,234 -83,298 -24,29 -53,51 -91,66 29,16 53,31 78,56 64,61 96,150 96,263l-1 378 0 0zm-542 -1386l-2 654 199 0c192,0 275,-91 275,-329 1,-230 -78,-325 -273,-325l-199 0 0 0z"/>
  <path id="_1_0" class="fil0" d="M6776 1605c0,24 -11,35 -35,35 -18,0 -33,-15 -33,-35l1 -378c1,-184 -101,-286 -278,-286l-199 0 -2 664c0,24 -11,35 -35,35 -18,0 -33,-15 -33,-35l5 -1422c0,-17 15,-33 33,-33l234 0c237,0 345,122 344,394 -1,134 -28,234 -83,298 -25,29 -53,51 -91,66 29,16 53,31 77,56 64,61 97,150 97,263l-2 378 0 0zm-541 -1386l-2 654 199 0c192,0 274,-91 275,-329 1,-230 -78,-325 -273,-325l-199 0 0 0z"/>
  <path id="_2_1" class="fil0" d="M1337 530c0,-13 12,-25 27,-25 14,0 26,12 25,25l-2 833c-1,101 24,156 58,188 33,32 76,37 114,37 36,0 80,-5 113,-37 34,-32 60,-87 60,-188l3 -833c0,-13 12,-25 25,-25 15,0 27,12 27,25l-3 833c0,114 -29,183 -73,224 -44,42 -100,54 -152,54 -52,0 -106,-12 -150,-54 -43,-41 -75,-110 -75,-224l3 -833 0 0z"/>
  <path id="_3_2" class="fil0" d="M2201 1642c-19,0 -27,-8 -27,-27l4 -1083c0,-13 11,-25 27,-25l166 0c181,0 263,104 262,306l-2 523c0,202 -83,306 -264,306l-166 0zm29 -1083l-4 1031 142 0c146,0 209,-79 209,-254l2 -523c1,-175 -61,-254 -208,-254l-141 0 0 0z"/>
  <path id="_4_3" class="fil0" d="M3479 1614c0,18 -9,27 -27,27 -14,0 -25,-12 -25,-27l1 -288c0,-140 -77,-218 -212,-218l-151 0 -2 506c0,18 -9,27 -27,27 -14,0 -25,-12 -25,-27l3 -1084c0,-13 12,-25 26,-25l178 0c181,0 263,93 262,300 0,103 -21,179 -63,227 -19,22 -41,39 -69,51 22,12 40,24 59,42 48,47 73,115 73,201l-1 288 0 0zm-412 -1057l-2 499 151 0c147,0 210,-69 210,-251 1,-175 -60,-248 -208,-248l-151 0z"/>
  <path id="_5_4" class="fil0" d="M4399 1611c5,13 -7,27 -20,32l-7 0c-13,0 -22,-7 -25,-20l-75 -327 -298 0 -77 327c-5,13 -18,25 -32,20 -15,-5 -25,-19 -20,-32l255 -1084c4,-13 12,-20 25,-20 15,0 24,7 27,20l247 1084 0 0zm-274 -961l-139 594 275 0 -136 -594z"/>
  <path id="_6_5" class="fil0" d="M5370 722l-261 901c-5,12 -14,20 -27,20 -12,0 -20,-8 -25,-20l-255 -901 -3 893c0,19 -9,28 -27,28 -19,0 -27,-9 -27,-28l4 -1083c0,-29 44,-36 52,-7l281 994 290 -994c9,-29 53,-22 52,7l-3 1083c0,15 -14,28 -27,28 -19,0 -27,-9 -27,-28l3 -893 0 0z"/>
  <path id="_7_6" class="fil0" d="M7301 1100l-1 490 328 0c15,0 27,12 27,25 0,19 -8,27 -27,27l-354 0c-18,0 -27,-8 -27,-27l4 -1083c0,-13 12,-25 27,-25l354 0c15,0 27,12 27,25 0,19 -9,27 -27,27l-329 0 -1 489 328 0c19,0 27,8 27,27 0,13 -12,25 -27,25l-329 0 0 0z"/>
  <path id="_8_7" class="fil0" d="M8579 1611c5,13 -7,27 -21,32l-6 0c-14,0 -22,-7 -25,-20l-75 -327 -298 0 -77 327c-5,13 -19,25 -32,20 -15,-5 -25,-19 -20,-32l255 -1084c3,-13 11,-20 25,-20 15,0 23,7 27,20l247 1084 0 0zm-275 -961l-138 594 274 0 -136 -594z"/>
  <path id="_9_8" class="fil0" d="M8948 1642c-18,0 -27,-8 -27,-27l4 -1083c0,-13 12,-25 27,-25 14,0 25,12 25,25l-3 1058 355 0c15,0 27,12 27,25 0,19 -9,27 -27,27l-381 0 0 0z"/>
  <path id="_10_9" class="fil0" d="M10208 505c16,0 27,12 27,25 0,19 -8,27 -27,27l-244 0 -4 1057c0,15 -13,27 -27,27 -18,0 -27,-9 -27,-27l4 -1057 -246 0c-13,0 -25,-11 -25,-27 0,-13 12,-25 25,-25l544 0 0 0z"/>
  <path id="_11_10" class="fil0" d="M10905 1079l-2 536c0,14 -12,26 -27,26 -15,0 -27,-12 -27,-26l2 -536 -291 -535c-7,-12 -3,-29 10,-36 14,-7 29,-1 37,10l271 499 276 -499c7,-11 24,-17 36,-10 13,7 18,24 10,36l-295 535z"/>
 </g>
</svg>
